<svg width="281" height="68" viewBox="0 0 281 68" fill="none" xmlns="http://www.w3.org/2000/svg">
<path fill-rule="evenodd" clip-rule="evenodd" d="M14.1919 26.8671C14.1244 25.8672 16.8773 23.9384 17.7672 23.386C20.6604 24.4179 18.8772 24.4019 20.4171 26.2189C22.1008 28.2081 23.3867 26.0413 23.4116 28.6468C23.6283 30.6644 23.4915 30.7053 24.8502 31.6786C24.7881 26.9044 24.3067 28.7551 27.1343 23.997L24.6549 26.3237L21.9765 22.7377L17.8027 20.8675C17.5292 17.0382 20.9162 12.8982 24.1256 13.6122C24.5234 13.8626 27.319 15.557 28.2319 15.9992C29.1004 16.4219 29.8997 16.4219 30.7682 15.9992C31.6793 15.557 34.4749 13.8626 34.8745 13.6122C38.0839 12.8982 41.4709 17.0382 41.1974 20.8675L37.0236 22.7377L34.3452 26.3237L31.8658 23.997C34.6951 28.7551 34.2138 26.9044 34.1499 31.6786C35.5086 30.7053 35.3718 30.6644 35.5885 28.6468C35.6134 26.0395 36.8993 28.2081 38.583 26.2189C40.1211 24.4019 38.3379 24.4179 41.2329 23.386C42.1228 23.9384 44.8775 25.8672 44.8082 26.8671C43.8811 29.2933 41.7018 30.5898 39.7037 32.0267L40.4461 37.7511L37.2616 38.323C38.107 38.9908 39.3147 38.9925 40.7019 39.2075C40.4568 40.179 39.9506 40.8574 38.6132 40.9356C38.036 40.8734 37.4197 40.6621 36.6843 40.5662C36.8602 40.6017 37.4889 40.8344 38.1141 42.3902C34.5211 42.7099 33.8284 41.4524 30.8818 39.957C31.3312 35.9306 34.8567 36.3781 36.8762 34.3267C35.418 33.3517 32.1464 34.65 30.889 35.5256C30.246 35.9732 29.8872 36.117 29.4983 35.9572C29.1093 36.117 28.7488 35.9732 28.1076 35.5256C26.8501 34.65 23.5803 33.3517 22.1221 34.3267C24.1416 36.3781 27.6689 35.9288 28.1165 39.957C25.1682 41.4524 24.4773 42.7099 20.8842 42.3902C21.5112 40.8344 22.1381 40.6017 22.314 40.5662C21.5787 40.6621 20.9641 40.8734 20.3851 40.9356C19.0477 40.8574 18.5433 40.179 18.2964 39.2075C19.6836 38.9925 20.8913 38.9908 21.7367 38.323L18.5522 37.7511L19.2946 32.0267C17.2947 30.5916 15.1172 29.2933 14.1901 26.8671H14.1919ZM37.1728 0.600481L32.4626 5.72984L40.4603 2.70338L49.4314 5.94475L46.1119 7.00686C49.4225 9.19678 52.7278 11.3725 56.0242 13.5962C56.0242 13.5962 50.458 12.5767 48.9749 12.4257C51.2821 13.8342 57.0295 16.9992 58.5783 18.8872C58.5783 18.8872 59.4308 35.126 55.4399 38.1436L51.6959 33.206L51.8149 39.7012C51.8788 43.328 52.3246 42.836 50.3176 44.7151C48.2503 46.6528 45.8881 49.3454 43.8136 50.9794L41.7658 48.1306L41.7 53.2084C40.201 54.6541 28.7132 67.458 28.7132 67.458C28.7132 67.458 18.7955 54.6541 17.2965 53.2084L17.2308 48.1306L15.1829 50.9794C13.1085 49.3454 10.7463 46.6528 8.67889 44.7151C6.6719 42.8342 7.11948 43.328 7.18164 39.7012L7.30064 33.206L3.55663 38.1436C-0.4307 35.1278 0.421825 18.8872 0.421825 18.8872C1.97236 16.9992 7.71802 13.8342 10.0252 12.4257C8.54213 12.5767 2.97585 13.5962 2.97585 13.5962C6.27228 11.3725 9.57759 9.19678 12.8882 7.00686L9.56694 5.94475L18.538 2.70338L26.5357 5.72984L21.3495 0.54187C21.3495 0.54187 24.1149 0.552527 27.335 0.563183C28.0934 0.564959 29.7132 2.51689 29.7132 2.51689C29.7132 2.51689 30.8605 0.575616 31.4431 0.577392C34.553 0.588049 37.1745 0.598705 37.1745 0.598705L37.1728 0.600481ZM29.5 51.2227C29.5 51.2227 27.0899 47.1484 25.9141 46.2461L25.2765 47.8393C24.2375 46.7221 24.0528 45.9193 24.1771 44.0793L29.5 41.0901L34.823 44.0793C34.9473 45.9193 34.7626 46.7221 33.7236 47.8393L33.086 46.2461C31.9102 47.1484 29.5 51.2227 29.5 51.2227Z" fill="#BF2C38"/>
<path d="M74.3747 7.79401H77.8547L76.1027 22.098H84.4067L83.9987 25.458H72.2147L74.3747 7.79401ZM88.9354 25.458H85.5034L95.7274 7.09801H95.9194L101.631 25.458H97.5994L94.0954 12.546L96.8314 10.818L88.9354 25.458ZM91.7434 19.074H97.0474L97.9114 22.002H90.3034L91.7434 19.074ZM108.154 18.93C108.09 19.49 108.178 20.026 108.418 20.538C108.674 21.05 109.05 21.466 109.546 21.786C110.042 22.106 110.618 22.266 111.274 22.266C111.93 22.266 112.546 22.106 113.122 21.786C113.698 21.466 114.178 21.05 114.562 20.538C114.962 20.026 115.194 19.49 115.258 18.93L116.626 7.79401H120.226L118.858 19.002C118.698 20.298 118.234 21.45 117.466 22.458C116.698 23.45 115.738 24.234 114.586 24.81C113.434 25.37 112.194 25.65 110.866 25.65C109.554 25.65 108.386 25.37 107.362 24.81C106.354 24.234 105.594 23.45 105.082 22.458C104.57 21.45 104.394 20.298 104.554 19.002L105.922 7.79401H109.522L108.154 18.93ZM124.812 7.79401H135.852L135.444 11.106H128.004L127.524 15.186H133.956L133.524 18.522H127.092L126.252 25.458H122.652L124.812 7.79401ZM138.003 7.79401H149.907L149.475 11.226H145.251L143.499 25.458H139.899L141.651 11.226H137.571L138.003 7.79401ZM153.265 7.79401H165.313L164.929 11.034H156.481L156.001 14.97H163.465L163.057 18.282H155.593L155.113 22.122H163.897L163.489 25.458H151.105L153.265 7.79401ZM168.529 25.458H165.097L175.321 7.09801H175.513L181.225 25.458H177.193L173.689 12.546L176.425 10.818L168.529 25.458ZM171.337 19.074H176.641L177.505 22.002H169.897L171.337 19.074ZM187.16 25.458H183.8L186.056 7.07401H186.08L194.192 20.994L192.752 20.658L204.2 7.07401H204.248L201.992 25.458H198.512L199.808 14.922V16.722L192.776 25.218H192.728L187.64 16.722L188.432 15.066L187.16 25.458Z" fill="#E7E5E2"/>
<path d="M79.5587 39.794C81.2227 39.794 82.5347 40.106 83.4947 40.73C84.4547 41.338 84.9347 42.354 84.9347 43.778C84.9347 44.402 84.8387 45.034 84.6467 45.674C84.4707 46.314 84.1587 46.89 83.7107 47.402C83.2787 47.898 82.6787 48.258 81.9107 48.482L81.7907 48.362C82.2867 48.474 82.7587 48.674 83.2067 48.962C83.6547 49.25 84.0227 49.642 84.3107 50.138C84.5987 50.634 84.7427 51.258 84.7427 52.01C84.7427 52.986 84.5507 53.826 84.1667 54.53C83.7987 55.218 83.2947 55.778 82.6547 56.21C82.0307 56.642 81.3187 56.962 80.5187 57.17C79.7347 57.362 78.9267 57.458 78.0947 57.458H72.2147L74.3747 39.794H79.5587ZM78.9587 47.018C79.3427 47.018 79.6787 46.954 79.9667 46.826C80.2547 46.698 80.4947 46.522 80.6867 46.298C80.8787 46.074 81.0227 45.826 81.1187 45.554C81.2147 45.282 81.2627 45.002 81.2627 44.714C81.2627 44.154 81.0787 43.738 80.7107 43.466C80.3427 43.178 79.8467 43.034 79.2227 43.034H77.5907L77.0867 47.018H78.9587ZM78.2147 54.218C78.7747 54.218 79.2787 54.13 79.7267 53.954C80.1747 53.778 80.5347 53.514 80.8067 53.162C81.0787 52.81 81.2147 52.37 81.2147 51.842C81.2147 51.362 81.0787 50.994 80.8067 50.738C80.5507 50.482 80.2147 50.306 79.7987 50.21C79.3827 50.098 78.9427 50.042 78.4787 50.042H76.7267L76.2227 54.218H78.2147ZM95.0314 39.794C96.1354 39.794 97.0954 39.938 97.9114 40.226C98.7434 40.498 99.4234 40.898 99.9514 41.426C100.479 41.938 100.847 42.562 101.055 43.298C101.279 44.018 101.335 44.834 101.223 45.746C101.127 46.466 100.927 47.186 100.623 47.906C100.319 48.626 99.8874 49.282 99.3274 49.874C98.7674 50.466 98.0634 50.946 97.2154 51.314C96.3834 51.666 95.3754 51.842 94.1914 51.842H91.6954L90.9994 57.458H87.5194L89.6794 39.794H95.0314ZM94.5754 48.482C95.2794 48.482 95.8474 48.338 96.2794 48.05C96.7114 47.746 97.0314 47.394 97.2394 46.994C97.4474 46.578 97.5674 46.202 97.5994 45.866C97.6314 45.674 97.6314 45.434 97.5994 45.146C97.5834 44.842 97.5034 44.538 97.3594 44.234C97.2314 43.93 96.9994 43.674 96.6634 43.466C96.3274 43.258 95.8554 43.154 95.2474 43.154H92.7514L92.1034 48.482H94.5754ZM97.5754 50.642L101.103 57.458H97.0474L93.3994 50.738L97.5754 50.642ZM105.412 57.458H101.98L112.204 39.098H112.396L118.108 57.458H114.076L110.572 44.546L113.308 42.818L105.412 57.458ZM108.22 51.074H113.524L114.388 54.002H106.78L108.22 51.074ZM124.63 50.93C124.566 51.49 124.654 52.026 124.894 52.538C125.15 53.05 125.526 53.466 126.022 53.786C126.518 54.106 127.094 54.266 127.75 54.266C128.406 54.266 129.022 54.106 129.598 53.786C130.174 53.466 130.654 53.05 131.038 52.538C131.438 52.026 131.67 51.49 131.734 50.93L133.102 39.794H136.702L135.334 51.002C135.174 52.298 134.71 53.45 133.942 54.458C133.174 55.45 132.214 56.234 131.062 56.81C129.91 57.37 128.67 57.65 127.342 57.65C126.03 57.65 124.862 57.37 123.838 56.81C122.83 56.234 122.07 55.45 121.558 54.458C121.046 53.45 120.87 52.298 121.03 51.002L122.398 39.794H125.998L124.63 50.93ZM154.921 58.178H154.825L142.921 46.082L143.881 46.658L142.633 57.458H139.105L141.361 39.098H141.505L153.121 51.146L152.401 50.81L153.673 39.794H157.177L154.921 58.178ZM170.774 44.378C170.15 43.962 169.502 43.618 168.83 43.346C168.174 43.058 167.542 42.898 166.934 42.866C166.55 42.85 166.206 42.874 165.902 42.938C165.598 42.986 165.326 43.082 165.086 43.226C164.862 43.354 164.678 43.53 164.534 43.754C164.406 43.978 164.326 44.242 164.294 44.546C164.246 44.962 164.358 45.346 164.63 45.698C164.918 46.034 165.302 46.346 165.782 46.634C166.278 46.922 166.798 47.186 167.342 47.426C167.998 47.714 168.622 48.074 169.214 48.506C169.806 48.938 170.27 49.506 170.606 50.21C170.942 50.898 171.038 51.802 170.894 52.922C170.814 53.594 170.606 54.226 170.27 54.818C169.934 55.41 169.478 55.93 168.902 56.378C168.342 56.81 167.67 57.138 166.886 57.362C166.102 57.586 165.214 57.666 164.222 57.602C163.55 57.554 162.878 57.442 162.206 57.266C161.534 57.09 160.878 56.85 160.238 56.546C159.598 56.226 158.99 55.826 158.414 55.346L160.286 52.73C160.654 53.05 161.07 53.346 161.534 53.618C161.998 53.874 162.47 54.082 162.95 54.242C163.43 54.402 163.878 54.498 164.294 54.53C164.71 54.546 165.134 54.514 165.566 54.434C165.998 54.338 166.374 54.154 166.694 53.882C167.014 53.61 167.206 53.218 167.27 52.706C167.318 52.354 167.238 52.026 167.03 51.722C166.822 51.418 166.542 51.138 166.19 50.882C165.838 50.626 165.438 50.394 164.99 50.186C164.478 49.946 163.95 49.674 163.406 49.37C162.862 49.066 162.358 48.706 161.894 48.29C161.446 47.874 161.102 47.362 160.862 46.754C160.622 46.146 160.558 45.426 160.67 44.594C160.798 43.57 161.134 42.698 161.678 41.978C162.222 41.242 162.934 40.69 163.814 40.322C164.694 39.938 165.686 39.754 166.79 39.77C167.734 39.818 168.542 39.946 169.214 40.154C169.902 40.346 170.502 40.586 171.014 40.874C171.526 41.162 171.998 41.474 172.43 41.81L170.774 44.378ZM187.188 56.426C186.996 56.554 186.652 56.73 186.156 56.954C185.676 57.162 185.092 57.346 184.404 57.506C183.732 57.682 182.996 57.77 182.196 57.77C181.284 57.77 180.332 57.634 179.34 57.362C178.364 57.09 177.452 56.642 176.604 56.018C175.756 55.394 175.068 54.554 174.54 53.498C174.012 52.442 173.748 51.13 173.748 49.562C173.748 48.554 173.86 47.57 174.084 46.61C174.308 45.65 174.652 44.754 175.116 43.922C175.596 43.074 176.196 42.338 176.916 41.714C177.636 41.074 178.492 40.578 179.484 40.226C180.476 39.858 181.604 39.674 182.868 39.674C184.196 39.674 185.348 39.882 186.324 40.298C187.3 40.698 188.076 41.114 188.652 41.546L186.876 44.738C186.524 44.418 186.036 44.074 185.412 43.706C184.788 43.338 184.052 43.122 183.204 43.058C182.34 43.01 181.548 43.13 180.828 43.418C180.124 43.69 179.516 44.106 179.004 44.666C178.492 45.226 178.092 45.898 177.804 46.682C177.532 47.466 177.396 48.338 177.396 49.298C177.396 50.05 177.508 50.738 177.732 51.362C177.956 51.986 178.276 52.522 178.692 52.97C179.124 53.418 179.644 53.77 180.252 54.026C180.876 54.266 181.572 54.386 182.34 54.386C183.028 54.386 183.62 54.314 184.116 54.17C184.612 54.01 185.028 53.842 185.364 53.666C185.7 53.474 185.956 53.322 186.132 53.21L187.188 56.426ZM207.496 39.794L205.336 57.458H201.736L202.624 50.282H194.968L194.08 57.458H190.48L192.64 39.794H196.24L195.376 46.874H203.032L203.896 39.794H207.496ZM210.726 39.914H214.806L217.206 51.002L216.678 50.762L220.974 42.578L222.006 47.354L215.574 58.274L210.726 39.914ZM219.582 39.914H223.038L226.062 50.642L225.462 50.546L229.998 39.914H233.742L224.67 58.226L219.582 39.914ZM236.82 39.794H248.868L248.484 43.034H240.036L239.556 46.97H247.02L246.612 50.282H239.148L238.668 54.122H247.452L247.044 57.458H234.66L236.82 39.794ZM252.828 39.794H256.428L254.268 57.458H250.668L252.828 39.794ZM273.559 56.114C273.255 56.37 272.767 56.626 272.095 56.882C271.439 57.138 270.711 57.338 269.911 57.482C269.127 57.642 268.375 57.722 267.655 57.722C267.367 57.722 266.951 57.682 266.407 57.602C265.879 57.522 265.287 57.386 264.631 57.194C263.975 56.986 263.311 56.698 262.639 56.33C261.967 55.946 261.343 55.458 260.767 54.866C260.207 54.258 259.751 53.522 259.399 52.658C259.063 51.794 258.895 50.77 258.895 49.586C258.895 48.77 258.999 47.914 259.207 47.018C259.431 46.106 259.775 45.218 260.239 44.354C260.719 43.474 261.327 42.69 262.063 42.002C262.815 41.298 263.719 40.738 264.775 40.322C265.831 39.906 267.063 39.706 268.471 39.722C269.463 39.738 270.503 39.874 271.591 40.13C272.679 40.386 273.663 40.794 274.543 41.354L273.007 44.522C272.383 44.106 271.647 43.786 270.799 43.562C269.951 43.322 269.159 43.21 268.423 43.226C267.495 43.242 266.695 43.386 266.023 43.658C265.351 43.93 264.791 44.29 264.343 44.738C263.895 45.186 263.535 45.682 263.263 46.226C263.007 46.754 262.823 47.306 262.711 47.882C262.599 48.442 262.543 48.97 262.543 49.466C262.543 50.314 262.695 51.026 262.999 51.602C263.303 52.162 263.695 52.626 264.175 52.994C264.671 53.346 265.183 53.618 265.711 53.81C266.239 53.986 266.735 54.106 267.199 54.17C267.679 54.234 268.047 54.266 268.303 54.266C268.687 54.282 269.047 54.266 269.383 54.218C269.719 54.154 270.015 54.058 270.271 53.93L270.535 51.626H267.487L267.895 48.29H274.495L273.559 56.114Z" fill="#BF2C38"/>
</svg>
