<svg width="102" height="118" viewBox="0 0 102 118" fill="none" xmlns="http://www.w3.org/2000/svg">
    <path fill-rule="evenodd" clip-rule="evenodd"
        d="M24.2207 46.5274C24.1027 44.7791 28.9182 41.4067 30.4748 40.4409C35.5358 42.2451 32.4165 42.2172 35.1101 45.3939C38.0554 48.8719 40.3047 45.0834 40.3482 49.639C40.7273 53.1666 40.488 53.238 42.8648 54.9398C42.756 46.5926 41.9141 49.8284 46.8601 41.5092L42.523 45.5772L37.8379 39.3075L30.5369 36.0375C30.0584 29.3424 35.9832 22.1039 41.5972 23.3522C42.2931 23.7901 47.1832 26.7526 48.7801 27.5258C50.2994 28.2649 51.6974 28.2649 53.2167 27.5258C54.8105 26.7526 59.7006 23.7901 60.3996 23.3522C66.0137 22.1039 71.9384 29.3424 71.4599 36.0375L64.1589 39.3075L59.4738 45.5772L55.1367 41.5092C60.0859 49.8284 59.2439 46.5926 59.1321 54.9398C61.5088 53.238 61.2696 53.1666 61.6486 49.639C61.6921 45.0803 63.9414 48.8719 66.8867 45.3939C69.5772 42.2172 66.4579 42.2451 71.5221 40.4409C73.0786 41.4067 77.8973 44.7791 77.7761 46.5274C76.1543 50.7693 72.3423 53.0362 68.8471 55.5484L70.1457 65.5569L64.5752 66.5569C66.0541 67.7245 68.1667 67.7276 70.5931 68.1033C70.1644 69.8019 69.2789 70.9882 66.9395 71.1248C65.9298 71.0161 64.8517 70.6466 63.5655 70.4789C63.8731 70.541 64.9729 70.9478 66.0665 73.6681C59.7814 74.2271 58.5697 72.0285 53.4155 69.4138C54.2015 62.374 60.3686 63.1565 63.901 59.5698C61.3503 57.865 55.6276 60.135 53.4279 61.6659C52.3033 62.4485 51.6757 62.7 50.9953 62.4205C50.3149 62.7 49.6842 62.4485 48.5627 61.6659C46.363 60.135 40.6434 57.865 38.0927 59.5698C41.6251 63.1565 47.7953 62.3709 48.5782 69.4138C43.4209 72.0285 42.2123 74.2271 35.9272 73.6681C37.0239 70.9478 38.1206 70.541 38.4282 70.4789C37.142 70.6466 36.067 71.0161 35.0542 71.1248C32.7148 70.9882 31.8324 69.8019 31.4006 68.1033C33.827 67.7276 35.9397 67.7245 37.4185 66.5569L31.848 65.5569L33.1466 55.5484C29.6483 53.0393 25.8394 50.7693 24.2176 46.5274H24.2207ZM64.4199 0.602476L56.1806 9.57071L70.1706 4.2792L85.8631 9.94645L80.0565 11.8034C85.8476 15.6323 91.6294 19.4364 97.3957 23.3243C97.3957 23.3243 87.6589 21.5418 85.0647 21.2779C89.1004 23.7404 99.1541 29.2741 101.863 32.5751C101.863 32.5751 103.355 60.9672 96.3735 66.2432L89.8243 57.6104L90.0325 68.9666C90.1443 75.3077 90.9241 74.4475 87.4134 77.733C83.7971 81.1209 79.665 85.8286 76.0363 88.6855L72.4541 83.7046L72.3392 92.5827C69.717 95.1105 49.6221 117.497 49.6221 117.497C49.6221 117.497 32.2736 95.1105 29.6515 92.5827L29.5365 83.7046L25.9543 88.6855C22.3256 85.8286 18.1935 81.1209 14.5772 77.733C11.0665 74.4444 11.8494 75.3077 11.9581 68.9666L12.1663 57.6104L5.61709 66.2432C-1.35772 60.9703 0.133552 32.5751 0.133552 32.5751C2.84581 29.2741 12.8964 23.7404 16.9321 21.2779C14.3379 21.5418 4.60116 23.3243 4.60116 23.3243C10.3674 19.4364 16.1492 15.6323 21.9403 11.8034L16.1306 9.94645L31.8231 4.2792L45.8131 9.57071L36.7412 0.5C36.7412 0.5 41.5785 0.518632 47.2112 0.537264C48.5378 0.540369 51.3712 3.95314 51.3712 3.95314C51.3712 3.95314 53.3782 0.559002 54.3973 0.562107C59.8373 0.580739 64.423 0.599371 64.423 0.599371L64.4199 0.602476ZM50.9984 89.111C50.9984 89.111 46.7825 81.9873 44.7257 80.4098L43.6104 83.1953C41.7929 81.242 41.4698 79.8384 41.6873 76.6213L50.9984 71.395L60.3095 76.6213C60.527 79.8384 60.2039 81.242 58.3864 83.1953L57.2711 80.4098C55.2144 81.9873 50.9984 89.111 50.9984 89.111Z"
        fill="#BF2C38" />
</svg>